<?xml version="1.0" encoding="utf-8"?>
<!-- Generator: Adobe Illustrator 16.0.0, SVG Export Plug-In . SVG Version: 6.00 Build 0)  -->
<!DOCTYPE svg PUBLIC "-//W3C//DTD SVG 1.1//EN" "http://www.w3.org/Graphics/SVG/1.1/DTD/svg11.dtd">
<svg version="1.1" id="Calque_1" xmlns="http://www.w3.org/2000/svg" xmlns:xlink="http://www.w3.org/1999/xlink" viewBox="0.5 300.5 500 300" enable-background="new 0.5 300.5 500 300" xml:space="preserve">
<g>
	<title>greenhouse</title>
	<title>greenhouse</title>
	<path fill="none" stroke="#868686" stroke-width="4" stroke-linecap="round" stroke-linejoin="round" d="M78.023,558.146h345.473
		V400.241l-172.744-42.095L78.023,400.241V558.146z"/>
	<path fill="#1A1A1A" stroke="#868686" stroke-miterlimit="10" d="M150.751,486.628c0,0,0-3.479,0-12.112
		c0-8.658-27.27-15.563-27.27-15.563l0,0c0,0,6.815,27.673,15.335,27.673C147.351,486.624,150.751,486.628,150.751,486.628z
		 M123.485,458.955L123.485,458.955z"/>
	<path fill="#1A1A1A" stroke="#868686" stroke-miterlimit="10" d="M178.023,486.628L178.023,486.628L178.023,486.628z
		 M178.023,486.628c0,0-27.271,6.897-27.271,15.563c0,8.623,0,12.076,0,12.076s3.421,0,11.936,0
		C171.203,514.27,178.023,486.628,178.023,486.628z"/>
	<rect x="149.382" y="447.865" fill="#1A1A1A" stroke="#868686" stroke-miterlimit="10" width="2.743" height="83.007"/>
	<path fill="#1A1A1A" stroke="#868686" stroke-miterlimit="10" d="M170.924,451.52c0.855-0.91,1.339-2.213,1.409-3.83
		c0.054-1.297-0.181-2.803-0.732-4.478c-0.46-1.417-1.097-2.812-1.878-4.185c1.057-0.356,2.061-0.771,2.983-1.248
		c7.105-3.598,7.105-9.432,0-13.033c-0.923-0.475-1.927-0.893-2.983-1.208c0.781-1.41,1.414-2.815,1.878-4.188
		c1.234-3.742,0.877-6.66-0.677-8.33c-1.643-1.752-4.581-2.196-8.422-0.912c-1.357,0.471-2.746,1.133-4.12,1.906
		c-0.329-1.056-0.744-2.062-1.196-3.007c-3.563-7.198-9.313-7.198-12.86,0c-0.468,0.943-0.875,1.955-1.209,3.007
		c-1.373-0.771-2.75-1.437-4.123-1.906c-3.644-1.226-6.48-0.879-8.163,0.654c-1.767,1.635-2.21,4.653-0.928,8.588
		c0.46,1.379,1.093,2.774,1.879,4.188c-1.058,0.319-2.06,0.733-2.985,1.208c-7.087,3.602-7.087,9.436,0,13.033
		c0.926,0.478,1.928,0.892,2.985,1.248c-0.782,1.373-1.415,2.774-1.879,4.185c-1.271,3.892-0.847,6.858,0.876,8.5
		c0.891,0.871,2.146,1.386,3.695,1.466c1.299,0.057,2.829-0.169,4.52-0.767c1.369-0.466,2.75-1.112,4.119-1.907
		c0.333,1.057,0.749,2.088,1.213,3.016c3.547,7.228,9.297,7.228,12.86,0c0.452-0.924,0.859-1.963,1.196-3.016
		c1.374,0.791,2.763,1.441,4.12,1.907C166.347,453.708,169.281,453.271,170.924,451.52z M157.194,424.75
		c3.546,3.602,3.546,9.436,0,13.033c-3.563,3.626-9.311,3.626-12.856,0c-3.56-3.598-3.56-9.432,0-13.033
		C147.879,421.152,153.63,421.152,157.194,424.75"/>
	<path fill="#1A1A1A" stroke="#868686" stroke-miterlimit="10" d="M250.758,486.628c0,0,0-3.479,0-12.112
		c0-8.658-27.271-15.563-27.271-15.563l0,0c0,0,6.816,27.673,15.35,27.673C247.357,486.624,250.758,486.628,250.758,486.628z
		 M223.486,458.955L223.486,458.955z"/>
	<path fill="#1A1A1A" stroke="#868686" stroke-miterlimit="10" d="M278.041,486.628L278.041,486.628L278.041,486.628z
		 M278.041,486.628c0,0-27.289,6.897-27.289,15.563c0,8.623,0,12.076,0,12.076s3.42,0,11.936,0
		C271.215,514.266,278.041,486.628,278.041,486.628z"/>
	<rect x="249.4" y="447.865" fill="#1A1A1A" stroke="#868686" stroke-miterlimit="10" width="2.727" height="83.007"/>
	<path fill="#1A1A1A" stroke="#868686" stroke-miterlimit="10" d="M270.924,451.52c0.859-0.91,1.361-2.213,1.414-3.83
		c0.053-1.297-0.172-2.803-0.732-4.478c-0.443-1.417-1.098-2.812-1.879-4.185c1.057-0.356,2.061-0.771,2.98-1.248
		c7.105-3.598,7.105-9.432,0-13.033c-0.92-0.475-1.928-0.893-2.98-1.208c0.785-1.41,1.436-2.815,1.879-4.188
		c1.232-3.742,0.875-6.66-0.678-8.33c-1.625-1.752-4.564-2.196-8.42-0.912c-1.354,0.471-2.746,1.133-4.107,1.906
		c-0.35-1.056-0.758-2.062-1.209-3.007c-3.564-7.198-9.312-7.198-12.855,0c-0.471,0.943-0.863,1.955-1.215,3.007
		c-1.355-0.771-2.746-1.437-4.119-1.906c-3.646-1.226-6.482-0.879-8.148,0.654c-1.785,1.635-2.229,4.653-0.93,8.588
		c0.445,1.379,1.082,2.774,1.883,4.188c-1.061,0.319-2.061,0.733-2.984,1.208c-7.104,3.602-7.104,9.436,0,13.033
		c0.926,0.478,1.926,0.892,2.984,1.248c-0.801,1.373-1.434,2.774-1.883,4.185c-1.287,3.892-0.859,6.858,0.877,8.5
		c0.896,0.871,2.146,1.386,3.684,1.466c1.312,0.057,2.824-0.169,4.518-0.767c1.369-0.466,2.766-1.112,4.119-1.907
		c0.346,1.057,0.746,2.088,1.215,3.016c3.545,7.228,9.295,7.228,12.857,0c0.455-0.924,0.859-1.963,1.209-3.016
		c1.361,0.791,2.75,1.441,4.107,1.907C266.359,453.708,269.299,453.271,270.924,451.52z M257.191,424.75
		c3.543,3.602,3.543,9.436,0,13.033c-3.564,3.626-9.312,3.626-12.855,0c-3.545-3.598-3.545-9.432,0-13.033
		C247.875,421.152,253.625,421.152,257.191,424.75"/>
	<path fill="#1A1A1A" stroke="#868686" stroke-miterlimit="10" d="M350.77,486.628c0,0,0-3.479,0-12.112
		c0-8.658-27.287-15.563-27.287-15.563l0,0c0,0,6.836,27.673,15.354,27.673C347.352,486.624,350.77,486.628,350.77,486.628z
		 M323.482,458.955L323.482,458.955z"/>
	<path fill="#1A1A1A" stroke="#868686" stroke-miterlimit="10" d="M378.043,486.628L378.043,486.628L378.043,486.628z
		 M378.043,486.628c0,0-27.273,6.897-27.273,15.563c0,8.623,0,12.076,0,12.076s3.404,0,11.93,0
		C371.221,514.27,378.043,486.628,378.043,486.628z"/>
	<rect x="349.396" y="447.865" fill="#1A1A1A" stroke="#868686" stroke-miterlimit="10" width="2.725" height="83.007"/>
	<path fill="#1A1A1A" stroke="#868686" stroke-miterlimit="10" d="M370.924,451.52c0.861-0.91,1.361-2.213,1.432-3.83
		c0.049-1.297-0.188-2.803-0.73-4.478c-0.463-1.417-1.1-2.812-1.896-4.185c1.057-0.356,2.062-0.771,2.98-1.248
		c7.104-3.598,7.104-9.432,0-13.033c-0.924-0.475-1.928-0.893-2.98-1.208c0.797-1.41,1.434-2.815,1.896-4.188
		c1.217-3.742,0.877-6.66-0.689-8.33c-1.625-1.752-4.566-2.196-8.406-0.912c-1.369,0.471-2.746,1.133-4.123,1.906
		c-0.346-1.056-0.74-2.062-1.205-3.007c-3.547-7.198-9.299-7.198-12.861,0c-0.451,0.943-0.859,1.955-1.199,3.007
		c-1.365-0.771-2.76-1.437-4.115-1.906c-3.66-1.226-6.502-0.879-8.162,0.654c-1.768,1.635-2.225,4.653-0.93,8.588
		c0.443,1.379,1.094,2.774,1.879,4.188c-1.055,0.319-2.059,0.733-2.979,1.208c-7.105,3.602-7.105,9.436,0,13.033
		c0.926,0.478,1.926,0.892,2.979,1.248c-0.785,1.373-1.436,2.774-1.879,4.185c-1.287,3.892-0.846,6.858,0.875,8.5
		c0.898,0.871,2.146,1.386,3.686,1.466c1.309,0.057,2.82-0.169,4.531-0.767c1.355-0.466,2.75-1.112,4.115-1.907
		c0.336,1.057,0.748,2.088,1.199,3.016c3.566,7.228,9.314,7.228,12.857,0c0.475-0.924,0.859-1.963,1.209-3.016
		c1.377,0.791,2.75,1.441,4.123,1.907C366.359,453.708,369.305,453.271,370.924,451.52z M357.191,424.75
		c3.559,3.602,3.559,9.436,0,13.033c-3.547,3.626-9.299,3.626-12.861,0c-3.537-3.598-3.537-9.432,0-13.033
		C347.896,421.152,353.648,421.152,357.191,424.75"/>
	<path fill="#1A1A1A" stroke="#868686" stroke-miterlimit="10" d="M132.583,521.802h36.361l-6.063,27.275h-24.253L132.583,521.802z"
		/>
	<path fill="#1A1A1A" stroke="#868686" stroke-miterlimit="10" d="M232.574,521.802h36.371l-6.066,27.275h-24.238L232.574,521.802z"
		/>
	<path fill="#1A1A1A" stroke="#868686" stroke-miterlimit="10" d="M332.58,521.802h36.365l-6.066,27.275h-24.234L332.58,521.802z"/>
</g>
</svg>
