<?xml version="1.0" encoding="utf-8"?>
<!-- Generator: Adobe Illustrator 16.0.0, SVG Export Plug-In . SVG Version: 6.00 Build 0)  -->
<!DOCTYPE svg PUBLIC "-//W3C//DTD SVG 1.1//EN" "http://www.w3.org/Graphics/SVG/1.1/DTD/svg11.dtd">
<svg version="1.1" id="Calque_1" xmlns="http://www.w3.org/2000/svg" xmlns:xlink="http://www.w3.org/1999/xlink" viewBox="0 0 500 300" enable-background="new 0 0 500 300" xml:space="preserve">
<g>
	<path id="Cloud_2_" fill="#706F6F" d="M328.333,153.04c0-14.771-10.795-27.012-24.919-29.268c0.503-1.207,0.786-2.521,0.786-3.9
		c0-5.514-4.461-9.975-9.977-9.975c-2.521,0-4.822,0.938-6.576,2.488c-1.267-12.605-11.889-22.456-24.822-22.456
		c-10.678,0-19.786,6.713-23.348,16.153c-5.666,2.4-10.679,6.043-14.706,10.582c-3.932-2.793-8.717-4.422-13.895-4.422
		c-13.292,0-24.062,10.764-24.062,24.061c0,7.176,3.144,13.61,8.125,18.021c-3.825,2.455-6.367,6.739-6.367,11.621
		c0,7.614,6.175,13.795,13.793,13.795c1.984,0,3.867-0.423,5.576-1.185c4.441,10.358,14.724,17.61,26.706,17.61
		c9.319,0,17.599-4.383,22.922-11.2c0.693-0.029,1.393-0.094,2.082-0.154c3.451,8.057,11.455,13.705,20.773,13.705
		c10.203,0,18.83-6.754,21.635-16.039C316.845,180.802,328.333,168.267,328.333,153.04z"/>
</g>
<g>
	<g>
		<g>
			<polygon fill="#EDEDED" points="169.958,150.524 188.494,150.54 202.258,150.552 191.021,161.767 198.958,161.772 
				213.004,147.755 198.98,133.705 191.042,133.697 202.262,144.933 188.498,144.921 169.962,144.907 			"/>
		</g>
	</g>
</g>
<g>
	<g>
		<g>
			<polygon fill="#EDEDED" points="309.411,150.542 327.948,150.558 341.709,150.565 330.474,161.785 338.411,161.789 
				352.457,147.771 338.433,133.722 330.495,133.714 341.714,144.949 327.952,144.938 309.415,144.923 			"/>
		</g>
	</g>
</g>
<g>
	<path fill="#EDEDED" d="M443.275,115.232c-0.081-1.083-0.982-1.95-2.09-1.95H361.07c-1.106,0-2.006,0.867-2.089,1.95l-0.019,54.137
		c0,1.166,0.944,2.106,2.107,2.106h80.115c1.162,0,2.106-0.94,2.106-2.106L443.275,115.232z M439.92,161.353h-77.582v-44.693h77.582
		V161.353z"/>
	<path fill="#EDEDED" d="M414.62,181.593c-3.38-0.843-4.217-3.367-4.217-6.744v-0.847h-9.276h-9.27v0.847
		c0,3.38-0.847,5.906-4.22,6.744c-0.812,0.202-0.84,1.689,0,1.689h13.49h13.493C415.462,183.282,415.437,181.795,414.62,181.593z"/>
</g>
<g>
	<title>greenhouse</title>
	<title>greenhouse</title>
	<path fill="none" stroke="#868686" stroke-linecap="round" stroke-linejoin="round" d="M39.903,179.553h120.921v-55.269
		l-60.463-14.731l-60.458,14.731V179.553z"/>
	<path fill="#1A1A1A" stroke="#868686" stroke-miterlimit="10" d="M65.359,154.521c0,0,0-1.218,0-4.24
		c0-3.029-9.544-5.446-9.544-5.446l0,0c0,0,2.385,9.686,5.368,9.686C64.168,154.52,65.359,154.521,65.359,154.521z M55.816,144.835
		L55.816,144.835z"/>
	<path fill="#1A1A1A" stroke="#868686" stroke-miterlimit="10" d="M74.904,154.521L74.904,154.521L74.904,154.521z M74.904,154.521
		c0,0-9.545,2.415-9.545,5.447c0,3.019,0,4.228,0,4.228s1.198,0,4.177,0C72.518,164.196,74.904,154.521,74.904,154.521z"/>
	<rect x="64.879" y="140.954" fill="#1A1A1A" stroke="#868686" stroke-miterlimit="10" width="0.96" height="29.054"/>
	<path fill="#1A1A1A" stroke="#868686" stroke-miterlimit="10" d="M72.419,142.234c0.299-0.319,0.47-0.776,0.494-1.341
		c0.018-0.453-0.063-0.981-0.256-1.567c-0.161-0.497-0.385-0.986-0.658-1.466c0.371-0.124,0.721-0.27,1.044-0.436
		c2.487-1.259,2.487-3.301,0-4.562c-0.324-0.165-0.676-0.312-1.044-0.423c0.272-0.493,0.496-0.987,0.658-1.465
		c0.432-1.31,0.306-2.331-0.238-2.916c-0.574-0.613-1.604-0.769-2.947-0.32c-0.475,0.166-0.961,0.396-1.442,0.667
		c-0.116-0.37-0.261-0.721-0.419-1.053c-1.249-2.52-3.261-2.52-4.501,0c-0.165,0.33-0.307,0.686-0.423,1.053
		c-0.48-0.271-0.963-0.504-1.442-0.667c-1.275-0.428-2.269-0.307-2.858,0.23c-0.619,0.572-0.774,1.628-0.325,3.005
		c0.162,0.481,0.383,0.97,0.658,1.465c-0.37,0.112-0.721,0.259-1.044,0.423c-2.48,1.259-2.48,3.302,0,4.562
		c0.323,0.167,0.675,0.312,1.044,0.436c-0.273,0.48-0.495,0.97-0.658,1.466c-0.444,1.362-0.296,2.399,0.307,2.976
		c0.312,0.303,0.75,0.483,1.292,0.512c0.455,0.02,0.99-0.059,1.582-0.27c0.479-0.162,0.962-0.39,1.441-0.667
		c0.116,0.368,0.261,0.731,0.424,1.054c1.241,2.529,3.253,2.529,4.501,0c0.158-0.323,0.299-0.688,0.419-1.054
		c0.48,0.275,0.967,0.505,1.442,0.667C70.819,143,71.845,142.845,72.419,142.234z M67.614,132.864c1.241,1.259,1.241,3.302,0,4.562
		c-1.248,1.27-3.259,1.27-4.5,0c-1.247-1.259-1.247-3.301,0-4.562C64.354,131.604,66.366,131.604,67.614,132.864"/>
	<path fill="#1A1A1A" stroke="#868686" stroke-miterlimit="10" d="M100.364,154.521c0,0,0-1.218,0-4.24
		c0-3.029-9.545-5.446-9.545-5.446l0,0c0,0,2.385,9.686,5.373,9.686C99.172,154.52,100.364,154.521,100.364,154.521z
		 M90.817,144.835L90.817,144.835z"/>
	<path fill="#1A1A1A" stroke="#868686" stroke-miterlimit="10" d="M109.912,154.521L109.912,154.521L109.912,154.521z
		 M109.912,154.521c0,0-9.551,2.415-9.551,5.447c0,3.019,0,4.228,0,4.228s1.196,0,4.177,0
		C107.524,164.196,109.912,154.521,109.912,154.521z"/>
	<rect x="99.887" y="140.954" fill="#1A1A1A" stroke="#868686" stroke-miterlimit="10" width="0.955" height="29.054"/>
	<path fill="#1A1A1A" stroke="#868686" stroke-miterlimit="10" d="M107.42,142.234c0.301-0.319,0.477-0.776,0.496-1.341
		c0.019-0.453-0.059-0.981-0.256-1.567c-0.154-0.497-0.385-0.986-0.658-1.466c0.372-0.124,0.721-0.27,1.044-0.436
		c2.488-1.259,2.488-3.301,0-4.562c-0.323-0.165-0.675-0.312-1.044-0.423c0.275-0.493,0.504-0.987,0.658-1.465
		c0.432-1.31,0.307-2.331-0.238-2.916c-0.568-0.613-1.596-0.769-2.946-0.32c-0.474,0.166-0.961,0.396-1.438,0.667
		c-0.123-0.37-0.265-0.721-0.423-1.053c-1.247-2.52-3.259-2.52-4.499,0c-0.164,0.33-0.301,0.686-0.425,1.053
		c-0.474-0.271-0.96-0.504-1.441-0.667c-1.275-0.428-2.269-0.307-2.852,0.23c-0.625,0.572-0.78,1.628-0.325,3.005
		c0.155,0.481,0.379,0.97,0.659,1.465c-0.372,0.112-0.721,0.259-1.044,0.423c-2.487,1.259-2.487,3.302,0,4.562
		c0.324,0.167,0.674,0.312,1.044,0.436c-0.28,0.48-0.502,0.97-0.659,1.466c-0.451,1.362-0.301,2.399,0.306,2.976
		c0.314,0.303,0.751,0.483,1.29,0.512c0.459,0.02,0.989-0.059,1.582-0.27c0.479-0.162,0.967-0.39,1.441-0.667
		c0.121,0.368,0.261,0.731,0.425,1.054c1.241,2.529,3.253,2.529,4.5,0c0.158-0.323,0.301-0.688,0.423-1.054
		c0.477,0.275,0.963,0.505,1.438,0.667C105.824,143,106.853,142.845,107.42,142.234z M102.614,132.864
		c1.239,1.259,1.239,3.302,0,4.562c-1.249,1.27-3.259,1.27-4.499,0c-1.241-1.259-1.241-3.301,0-4.562
		C99.353,131.604,101.365,131.604,102.614,132.864"/>
	<path fill="#1A1A1A" stroke="#868686" stroke-miterlimit="10" d="M135.367,154.521c0,0,0-1.218,0-4.24
		c0-3.029-9.551-5.446-9.551-5.446l0,0c0,0,2.392,9.686,5.374,9.686C134.171,154.52,135.367,154.521,135.367,154.521z
		 M125.818,144.835L125.818,144.835z"/>
	<path fill="#1A1A1A" stroke="#868686" stroke-miterlimit="10" d="M144.915,154.521L144.915,154.521L144.915,154.521z
		 M144.915,154.521c0,0-9.547,2.415-9.547,5.447c0,3.019,0,4.228,0,4.228s1.192,0,4.176,0S144.915,154.521,144.915,154.521z"/>
	<rect x="134.887" y="140.954" fill="#1A1A1A" stroke="#868686" stroke-miterlimit="10" width="0.954" height="29.054"/>
	<path fill="#1A1A1A" stroke="#868686" stroke-miterlimit="10" d="M142.422,142.234c0.302-0.319,0.477-0.776,0.502-1.341
		c0.018-0.453-0.066-0.981-0.256-1.567c-0.162-0.497-0.386-0.986-0.664-1.466c0.37-0.124,0.722-0.27,1.043-0.436
		c2.488-1.259,2.488-3.301,0-4.562c-0.324-0.165-0.675-0.312-1.043-0.423c0.28-0.493,0.502-0.987,0.664-1.465
		c0.426-1.31,0.307-2.331-0.24-2.916c-0.57-0.613-1.599-0.769-2.943-0.32c-0.479,0.166-0.961,0.396-1.443,0.667
		c-0.121-0.37-0.259-0.721-0.422-1.053c-1.241-2.52-3.254-2.52-4.501,0c-0.157,0.33-0.301,0.686-0.42,1.053
		c-0.478-0.271-0.966-0.504-1.439-0.667c-1.281-0.428-2.276-0.307-2.856,0.23c-0.621,0.572-0.779,1.628-0.327,3.005
		c0.154,0.481,0.384,0.97,0.658,1.465c-0.37,0.112-0.721,0.259-1.043,0.423c-2.488,1.259-2.488,3.302,0,4.562
		c0.325,0.167,0.675,0.312,1.043,0.436c-0.273,0.48-0.504,0.97-0.658,1.466c-0.449,1.362-0.297,2.399,0.307,2.976
		c0.315,0.303,0.75,0.483,1.29,0.512c0.458,0.02,0.988-0.059,1.586-0.27c0.474-0.162,0.963-0.39,1.439-0.667
		c0.118,0.368,0.264,0.731,0.42,1.054c1.249,2.529,3.261,2.529,4.5,0c0.166-0.323,0.301-0.688,0.423-1.054
		c0.482,0.275,0.963,0.505,1.443,0.667C140.825,143,141.856,142.845,142.422,142.234z M137.616,132.864
		c1.246,1.259,1.246,3.302,0,4.562c-1.241,1.27-3.254,1.27-4.501,0c-1.237-1.259-1.237-3.301,0-4.562
		C134.363,131.604,136.376,131.604,137.616,132.864"/>
	<path fill="#1A1A1A" stroke="#868686" stroke-miterlimit="10" d="M59,166.833h12.727l-2.124,9.548h-8.489L59,166.833z"/>
	<path fill="#1A1A1A" stroke="#868686" stroke-miterlimit="10" d="M93.999,166.833h12.73l-2.125,9.548h-8.483L93.999,166.833z"/>
	<path fill="#1A1A1A" stroke="#868686" stroke-miterlimit="10" d="M129.002,166.833h12.729l-2.125,9.548h-8.483L129.002,166.833z"/>
</g>
</svg>
